inDegrees=no
num_controls=7
num_derivatives=13
num_iterations=140
num_multipliers=7
num_parameters=0
num_slacks=7
num_states=26
objective=0.550999
objective_accelerations=0.031075
objective_balance=0.002959
objective_effort=0.039225
objective_height=0.468467
objective_ligament=0.009273
solver_duration=1701.133264
status=Solve_Succeeded
success=true
DataType=double
version=3
OpenSimVersion=4.5
endheader
time	/jointset/ground_pelvis/pelvis_tilt/value	/jointset/ground_pelvis/pelvis_tx/value	/jointset/ground_pelvis/pelvis_ty/value	/jointset/hip_r/hip_flexion_r/value	/jointset/hip_r/hip_adduction_r/value	/jointset/hip_r/hip_rotation_r/value	/jointset/back/lumbar_extension/value	/jointset/patellofemoral_r/patellar_flexion_r/value	/jointset/knee_r/knee_flexion_r/value	/jointset/knee_r/knee_adduction_r/value	/jointset/knee_r/knee_rotation_r/value	/jointset/ankle_r/ankle_angle_r/value	/jointset/subtalar_r/subtalar_angle_r/value	/jointset/ground_pelvis/pelvis_tilt/speed	/jointset/ground_pelvis/pelvis_tx/speed	/jointset/ground_pelvis/pelvis_ty/speed	/jointset/hip_r/hip_flexion_r/speed	/jointset/hip_r/hip_adduction_r/speed	/jointset/hip_r/hip_rotation_r/speed	/jointset/back/lumbar_extension/speed	/jointset/patellofemoral_r/patellar_flexion_r/speed	/jointset/knee_r/knee_flexion_r/speed	/jointset/knee_r/knee_adduction_r/speed	/jointset/knee_r/knee_rotation_r/speed	/jointset/ankle_r/ankle_angle_r/speed	/jointset/subtalar_r/subtalar_angle_r/speed	/forceset/tau_hip_flexion_r	/forceset/tau_hip_adduction_r	/forceset/tau_hip_rotation_r	/forceset/tau_knee_flexion_r	/forceset/tau_ankle_angle_r	/forceset/tau_subtalar_angle_r	/forceset/tau_lumbar_extension	lambda_cid13_p0	lambda_cid14_p0	lambda_cid14_p1	lambda_cid14_p2	lambda_cid14_p3	lambda_cid14_p4	lambda_cid14_p5	/jointset/ground_pelvis/pelvis_tilt/accel	/jointset/ground_pelvis/pelvis_tx/accel	/jointset/ground_pelvis/pelvis_ty/accel	/jointset/hip_r/hip_flexion_r/accel	/jointset/hip_r/hip_adduction_r/accel	/jointset/hip_r/hip_rotation_r/accel	/jointset/back/lumbar_extension/accel	/jointset/patellofemoral_r/patellar_flexion_r/accel	/jointset/knee_r/knee_flexion_r/accel	/jointset/knee_r/knee_adduction_r/accel	/jointset/knee_r/knee_rotation_r/accel	/jointset/ankle_r/ankle_angle_r/accel	/jointset/subtalar_r/subtalar_angle_r/accel	gamma_cid13_p0	gamma_cid14_p0	gamma_cid14_p1	gamma_cid14_p2	gamma_cid14_p3	gamma_cid14_p4	gamma_cid14_p5
0	-0.006515342351807511	0.09626027339350861	0.9427240840006712	0.1762555222360518	-0.2321525960179675	-0.2616406792594377	-0.038598046466844	0.07317863873451204	0.07317863873451017	0.1745325568674032	0.174532905566477	0.03247278518263602	-0.003451875166036097	0	0	0	0	0	0	0	0	0	0	0	0	0	0.2082802739051759	-0.2020594527572684	-0.04309796148845616	-0.4031032024644647	0.4081992442787054	-0.1071559555889075	-0.104511303634937	-39.07652155974753	83.19641061696366	-22.41220751492708	-6.885059198596211	-46.14393025663695	-679.402858350262	90.35132216271498	-0.6594975646339176	-0.4709463777504241	-0.4034203528351102	6.276197916565377	0.3546778644643428	2.225541692260182	-4.379600502658552	8.423256288202897	8.423256288202721	-2.983608237027655	0.1457387080185207	3.697521681373496	1.215204993484958	1.021828888674536e-07	6.290915327991891e-08	-6.697978304084919e-07	2.625269768855966e-07	3.519594139680416e-08	2.464715235330959e-08	-4.154897062708157e-07
0.01	-0.006543470910787955	0.09623694115417525	0.9427048235168488	0.1765581392684631	-0.2321338968513949	-0.2615222193930278	-0.03881869787251791	0.07358808802612211	0.07358808802612171	0.1743837417909797	0.1745296906832402	0.03265350878135156	-0.003391145485604221	-0.005591398316018618	-0.004667330691694311	-0.003847695949504959	0.06025081434949456	0.003659955722357037	0.02355093917605439	-0.04384135918669813	0.08152398629208181	0.08152398629208125	-0.02948859637253888	-0.0006069593739015767	0.03593275266675879	0.01201436391346141	0.2028473189349575	-0.2173897896698736	-0.04141909872460298	-0.3947120033408816	0.3916772603724252	-0.08801278388252488	-0.1003032417419674	-39.09000881682849	78.58366697258236	-14.9952792620848	-7.965526806123617	-43.24990604710349	-679.7797019567842	104.550510465077	-0.5038069230697192	-0.4647517993823242	-0.3747791643365507	5.858641301638958	0.3596199359429935	2.398773498888799	-4.343065334498457	7.962068558673979	7.962068558674006	-2.890395515494578	-0.158442455894001	3.509374013495513	1.174741044787577	1.313415886822929e-07	7.371543434678424e-08	-8.463270711410659e-07	2.630266026303555e-07	5.610885329034317e-08	-9.291125111537325e-08	-4.679314768759523e-07
0.02	-0.006626482644524359	0.09616691053102429	0.9426472190838658	0.1774550880658685	-0.2320810050256348	-0.2611724694411356	-0.03946909521162365	0.0748017969324455	0.07480179693244664	0.1739482587152066	0.174521500367088	0.03318720429756825	-0.003214234375135557	-0.0109766349513975	-0.009339676763515339	-0.007668789832137507	0.1188663529988867	0.006838531837577265	0.04625801709653599	-0.08594918668631982	0.1608519229426902	0.16085192294269	-0.05733359987018083	-0.0009950865797811403	0.0705943835002555	0.02323628600735669	0.1974143639647306	-0.2327201265824756	-0.03974023596075064	-0.3863208042172994	0.3751552764661462	-0.06886961217613863	-0.09609517984900702	-39.12997707930261	74.0474671701174	-7.582740527435679	-9.024970673121404	-40.55141616727903	-679.0200617315495	118.5250015139511	-0.6182652285059923	-0.4719494537757457	-0.3980999394606293	5.94914277654489	0.2584019430369743	2.056769441145534	-4.032894165243277	7.98404635990822	7.984046359908226	-2.654889662048249	0.1895051416230139	3.4432973147211	1.056716629571729	1.605002884971321e-07	8.452171541364956e-08	-1.02285631187364e-06	2.635262283751144e-07	7.702176518388219e-08	-2.104696545840561e-07	-5.20373247481089e-07
0.03	-0.006762449691024918	0.0960498260809059	0.9425513433593181	0.1789307867599036	-0.2319987022698664	-0.2606017671174752	-0.04053183842080655	0.07679855407277701	0.07679855407277909	0.1732426095919485	0.1745122503569891	0.03406096904190764	-0.002929018311355875	-0.01616615742080585	-0.01410765840518512	-0.01151489951487314	0.1760282918910165	0.009559878123747617	0.06777074180083746	-0.1263346639384739	0.2381377223526493	0.2381377223526487	-0.08354635823418846	-0.0008768280449554073	0.103917545667773	0.0336897908970336	0.1904857313058235	-0.2259212546094918	-0.03770335363135454	-0.3756878891826479	0.3588646142389426	-0.06819042802422014	-0.09088406930394223	-39.19549788173997	68.84206420757519	-8.220690584973028	-8.898716172462882	-36.60569854791443	-678.6563371159749	116.0053459822117	-0.4616855374941557	-0.4837738022110582	-0.379190717217072	5.562968404508815	0.2695790126777767	2.181834193531224	-4.001655823478101	7.546547098008116	7.546547098008078	-2.567117704200782	-0.08021892744864528	3.240704469754941	1.021965269814801	1.786299421347221e-07	8.97685787689634e-08	-1.135324128010564e-06	2.645052645411744e-07	9.096944146156915e-08	-2.9621755135277e-07	-5.551748780868183e-07
0.04	-0.006948789918485575	0.09588415155780114	0.9424167416910357	0.1809707546346537	-0.2318910704429822	-0.2598192755050795	-0.04199049266616577	0.07955730928050372	0.07955730928050435	0.1722823031289197	0.174503541904852	0.03526074116831994	-0.002542807628449582	-0.02105127114365412	-0.01905769136078421	-0.01541397857907948	0.2317201891416178	0.01190434606074736	0.088615874843489	-0.165131393921696	0.3132515364213426	0.313251536421343	-0.1082650678231458	-0.0008867749845684667	0.1357958599148052	0.04343520983267543	0.1835570986469205	-0.2191223826365113	-0.03566647130197243	-0.3650549741479936	0.342573952011738	-0.0675112438723052	-0.08567295875887233	-39.28526649151418	63.70625364706206	-8.863231382351962	-8.752566654614801	-32.83821370084389	-677.2548844932068	113.2786345059405	-0.5573834791939974	-0.508359716561589	-0.4086938157547724	5.655134448239167	0.183026273202848	1.923251108815495	-3.715144711456908	7.549649291655052	7.549649291655361	-2.356079907038187	0.1638640467353076	3.154327730624051	0.91509943876471	1.965321927583482e-07	9.490081495496689e-08	-1.246471090032114e-06	2.654941854581891e-07	1.047735046337746e-07	-3.81309561385402e-07	-5.896127944657558e-07
0.05	-0.007183007017656408	0.09566857785571739	0.9422427250309352	0.1835605264759122	-0.2317619242005674	-0.2588332265929914	-0.04382872042955624	0.08305707938944441	0.08305707938944491	0.171082472397672	0.1744956250076428	0.03677287776971003	-0.002062501840002262	-0.02576276198960927	-0.02403480249810131	-0.01940718213315084	0.2859513965143429	0.01387052888023265	0.108457169891825	-0.2022381844646808	0.3863459714297861	0.3863459714297845	-0.1314540103470533	-0.0007096878517406196	0.1664565570212894	0.05253454251403235	0.1783728042008405	-0.2127257173827311	-0.03415850810663735	-0.3592232015715197	0.3336136602102163	-0.068188975282493	-0.08155014981666321	-39.39778967293598	60.8552563937944	-9.71059536166768	-8.555980279231232	-30.99259899102643	-676.4883498051992	110.3785393196898	-0.4235995275174869	-0.4890287623385981	-0.3973848785788239	5.264712964358976	0.1951284989686121	1.9941295814585	-3.667050081996555	7.135824063793501	7.135824063793017	-2.263404935869227	-0.05724152229001231	2.995745912557165	0.8934722505512784	1.927310371302339e-07	8.850816093152823e-08	-1.21670063767274e-06	2.560815280131002e-07	1.091160672238784e-07	-4.4074792917103e-07	-5.831169021240146e-07
0.06	-0.007463452553329942	0.09540390465225614	0.9420282260846249	0.1866841302074123	-0.2316147732874286	-0.2576528525546969	-0.04602973686963192	0.08727709054014009	0.08727709054014049	0.1696581315390262	0.1744891044679882	0.03858638238454429	-0.00149397831119535	-0.03029695844441736	-0.02887759163628384	-0.02351043582103456	0.338486567189859	0.01550528020560725	0.1274809000847944	-0.2376891292587602	0.4572997447724097	0.4572997447724049	-0.1531670933030488	-0.000607503472773915	0.1960694626036363	0.0610787579045931	0.173188509754758	-0.20632905212895	-0.03265054491129871	-0.3533914289950459	0.3246533684086952	-0.06886670669267989	-0.07742734087445707	-39.53129601306193	58.06751925272731	-10.56301428178983	-8.340160981328635	-29.30831353431096	-674.7754431775915	107.2870136938626	-0.5219246009646055	-0.4814953167346563	-0.4307038425172431	5.315927108797378	0.1167399743807066	1.75973813774212	-3.383975561675863	7.12151695849108	7.121516958491135	-2.0609079934558	0.1488834959631115	2.944769425796601	0.8040759806054734	1.880160538704673e-07	8.163024837295518e-08	-1.180996820497327e-06	2.462309093738175e-07	1.130602508421041e-07	-4.991061435988893e-07	-5.748974809940345e-07
0.07000000000000001	-0.007788744110890804	0.0950914824038855	0.9417719990919643	0.1903252944594303	-0.2314529888702259	-0.2562878808206473	-0.04857676318753083	0.09219669372576668	0.092196693725767	0.1680241979597376	0.1744848215646372	0.04069096740077658	-0.0008427694505650437	-0.03473570180987483	-0.03358211311572214	-0.02776039130018128	0.3894679175767226	0.01680873504017808	0.1453841607784878	-0.2714535286640138	0.5262625572937564	0.5262625572937529	-0.1733885192768883	-0.000282852837851911	0.2246769310971891	0.06908582988360285	0.1680132596423415	-0.2015361563236488	-0.03107549958914696	-0.3483598898879682	0.3159018371251729	-0.06767146028797245	-0.07328628033774962	-39.68392217014851	55.38192073794292	-10.59938212025943	-8.237005006814851	-27.69055596732639	-673.634768517766	105.8159858641341	-0.4009749834317786	-0.4611961653267848	-0.426056217580291	4.947500734932262	0.130601526387052	1.786293446743239	-3.333281281433086	6.729875594030251	6.729875594030423	-1.968247160580119	-0.03072832837885968	2.79318291577154	0.7872873098889759	1.718607848636193e-07	7.090343311660375e-08	-1.064454768879874e-06	2.388384279743275e-07	1.095072613834251e-07	-5.312634650409209e-07	-5.480446788154041e-07
0.08	-0.008157648257924283	0.09473276182036484	0.9414724895811188	0.194467924561578	-0.2312794792469992	-0.254747741797349	-0.05145355532977865	0.09779516747562106	0.09779516747562145	0.1661949526684649	0.174482788332506	0.04307651657287184	-0.0001138369694765915	-0.03901947633915469	-0.03813725866628762	-0.03216693945799637	0.4387797372156421	0.01785032141042003	0.1625143579345927	-0.303642294128589	0.5930738576180546	0.5930738576180522	-0.1922294357000117	-0.0001575692283542581	0.2522622937762187	0.07662348199622265	0.1628380095299261	-0.1967432605183477	-0.02950045426698901	-0.3433283507808903	0.307150305841651	-0.06647621388326513	-0.06914521980104173	-39.8535575012266	52.75359926748907	-10.63776607696141	-8.119768688751099	-26.21944327065078	-671.6414684624557	104.1769266241566	-0.4909308337291033	-0.4516201309600731	-0.4620223782509135	4.982020959208553	0.06436628151492993	1.605125430224397	-3.068848773540194	6.691214519081393	6.691214519081373	-1.784806083312574	0.109010090878262	2.740348262891964	0.710192007327488	1.549674329053467e-07	5.992830155716985e-08	-9.426973472984182e-07	2.31604536074179e-07	1.054705833391394e-07	-5.617304062903185e-07	-5.199897230207316e-07
0.09	-0.008569000072032857	0.09432923687066967	0.9411280097833032	0.1990960379484388	-0.2310969400979217	-0.2530418005611317	-0.05464413860854584	0.1040518051295169	0.1040518051295169	0.1641843419296327	0.1744827639131012	0.04573300875084138	0.0006881207412987302	-0.04322875483639813	-0.042541052551603	-0.03675997535243086	0.4865692908014427	0.01862223086484478	0.178536740930804	-0.3342247201267696	0.6578967848115821	0.6578967848115789	-0.2096731319094501	0.0001207085717102038	0.2788687238129096	0.08370040526790101	0.1576906342779413	-0.1921495531482715	-0.02792346716524778	-0.3390499282199195	0.2988654650226771	-0.06475632846304197	-0.06499800195783606	-40.03800423397713	50.2578671135642	-10.43227695320254	-8.033196737368911	-24.79945363236989	-670.2352023569069	103.0121825858254	-0.3825806734714544	-0.4307361802277094	-0.4627003206147218	4.63639022634503	0.07823499531004437	1.580279855541566	-3.015493288276405	6.324267846603468	6.324267846603376	-1.691327232562896	-0.0174914195538127	2.595708295905699	0.6961739015092323	1.282784440509874e-07	4.709314829052989e-08	-7.431341802590552e-07	2.27799841431423e-07	9.366531992820129e-08	-5.694873205299556e-07	-4.727928205010903e-07
